<?xml version="1.0" encoding="utf-8"?>
<!-- Generator: Adobe Illustrator 15.0.0, SVG Export Plug-In . SVG Version: 6.00 Build 0)  -->
<!DOCTYPE svg PUBLIC "-//W3C//DTD SVG 1.1//EN" "http://www.w3.org/Graphics/SVG/1.1/DTD/svg11.dtd">
<svg version="1.1" id="图层_1" xmlns="http://www.w3.org/2000/svg" xmlns:xlink="http://www.w3.org/1999/xlink" x="0px" y="0px"
	 width="24px" height="24px" viewBox="0 0 24 24" enable-background="new 0 0 24 24" xml:space="preserve">
<path fill="#A9A9A9" d="M13.414,12L23.707,1.707c0.391-0.391,0.391-1.023,0-1.414s-1.023-0.391-1.414,0L12,10.586L1.707,0.293
	c-0.391-0.391-1.023-0.391-1.414,0s-0.391,1.023,0,1.414L10.586,12L0.293,22.293c-0.391,0.391-0.391,1.023,0,1.414
	C0.488,23.902,0.744,24,1,24s0.512-0.098,0.707-0.293L12,13.414l10.293,10.293C22.488,23.902,22.744,24,23,24
	s0.512-0.098,0.707-0.293c0.391-0.391,0.391-1.023,0-1.414L13.414,12z"/>
</svg>
