<?xml version="1.0" encoding="utf-8"?>
<!-- Generator: Adobe Illustrator 15.0.0, SVG Export Plug-In . SVG Version: 6.00 Build 0)  -->
<!DOCTYPE svg PUBLIC "-//W3C//DTD SVG 1.1//EN" "http://www.w3.org/Graphics/SVG/1.1/DTD/svg11.dtd">
<svg version="1.1" id="图层_1" xmlns="http://www.w3.org/2000/svg" xmlns:xlink="http://www.w3.org/1999/xlink" x="0px" y="0px"
	 width="24px" height="24px" viewBox="0 0 24 24" enable-background="new 0 0 24 24" xml:space="preserve">
<g>
	<path d="M11.5,0C5.159,0,0,5.159,0,11.5S5.159,23,11.5,23S23,17.841,23,11.5S17.841,0,11.5,0z M11.5,22C5.71,22,1,17.29,1,11.5
		S5.71,1,11.5,1S22,5.71,22,11.5S17.29,22,11.5,22z M17.5,11H12V5.5C12,5.224,11.776,5,11.5,5S11,5.224,11,5.5V11H5.5
		C5.224,11,5,11.224,5,11.5S5.224,12,5.5,12H11v5.5c0,0.275,0.224,0.5,0.5,0.5s0.5-0.225,0.5-0.5V12h5.5c0.275,0,0.5-0.224,0.5-0.5
		S17.775,11,17.5,11z"/>
</g>
</svg>
