<?xml version="1.0" encoding="utf-8"?>
<!-- Generator: Adobe Illustrator 15.0.0, SVG Export Plug-In . SVG Version: 6.00 Build 0)  -->
<!DOCTYPE svg PUBLIC "-//W3C//DTD SVG 1.1//EN" "http://www.w3.org/Graphics/SVG/1.1/DTD/svg11.dtd">
<svg version="1.1" id="Layer_1" xmlns="http://www.w3.org/2000/svg" xmlns:xlink="http://www.w3.org/1999/xlink" x="0px" y="0px"
	 width="64px" height="64px" viewBox="0 0 64 64" enable-background="new 0 0 64 64" xml:space="preserve">
<title>trash</title>
<path id="trash" d="M12,14h38v2H12V14z M40,15h-2v-3c0-1.104-0.896-2-2-2H26c-1.104,0-2,0.896-2,2v3h-2v-3c0-2.209,1.791-4,4-4h10
	c2.209,0,4,1.791,4,4V15z M25,20l1,32h-2l-1-32H25z M37,20h2l-1,32h-2L37,20z M30,20h2v32h-2V20z M41,58H21
	c-2.15-0.029-3.905-1.731-4-3.88l-3-39l2-0.15l3,39c0.035,1.095,0.906,1.979,2,2.03h20c1.11-0.092,1.973-1.006,2-2.12l3-39l2,0.15
	l-3,39C44.902,56.192,43.163,57.919,41,58z"/>
</svg>
