<?xml version="1.0" encoding="utf-8"?>
<!-- Generator: Adobe Illustrator 15.0.0, SVG Export Plug-In . SVG Version: 6.00 Build 0)  -->
<!DOCTYPE svg PUBLIC "-//W3C//DTD SVG 1.1//EN" "http://www.w3.org/Graphics/SVG/1.1/DTD/svg11.dtd">
<svg version="1.1" id="Layer_1" xmlns="http://www.w3.org/2000/svg" xmlns:xlink="http://www.w3.org/1999/xlink" x="0px" y="0px"
	 width="64px" height="64px" viewBox="0 0 64 64" enable-background="new 0 0 64 64" xml:space="preserve">
<title>camera-01</title>
<path fill="#A9A9A9" d="M56,18h-8c-0.711-0.004-1.365-0.385-1.721-1c0.002-0.033,0.002-0.067,0-0.1l-2.59-4.61
	c-0.056-0.111-0.134-0.21-0.229-0.29c-0.714-1.236-2.032-1.999-3.46-2H24c-1.484-0.001-2.846,0.818-3.54,2.13l-2.69,4.78
	c-0.003,0.033-0.003,0.066,0,0.1C17.403,17.637,16.726,18.016,16,18H8c-2.209,0-4,1.791-4,4v28c0,2.209,1.791,4,4,4h48
	c2.209,0,4-1.791,4-4V22C60,19.791,58.209,18,56,18z M32,46.109c-6.688,0-12.11-5.422-12.11-12.109c0-6.688,5.422-12.11,12.11-12.11
	c6.688,0,12.109,5.422,12.109,12.11C44.109,40.688,38.688,46.109,32,46.109L32,46.109z"/>
<circle fill="#A9A9A9" cx="32" cy="34" r="9.69"/>
</svg>
