<?xml version="1.0" encoding="utf-8"?>
<!-- Generator: Adobe Illustrator 15.0.0, SVG Export Plug-In . SVG Version: 6.00 Build 0)  -->
<!DOCTYPE svg PUBLIC "-//W3C//DTD SVG 1.1//EN" "http://www.w3.org/Graphics/SVG/1.1/DTD/svg11.dtd">
<svg version="1.1" id="Layer_1" xmlns="http://www.w3.org/2000/svg" xmlns:xlink="http://www.w3.org/1999/xlink" x="0px" y="0px"
	 width="64px" height="64px" viewBox="0 0 64 64" enable-background="new 0 0 64 64" xml:space="preserve">
<title>a</title>
<path d="M31.88,5.21c-14.912,0-27,12.088-27,27c0,14.911,12.088,27,27,27c14.911,0,27-12.089,27-27l0,0
	C58.88,17.298,46.791,5.21,31.88,5.21z M31.88,56.93C18.216,56.936,7.136,45.863,7.13,32.2C7.125,18.537,18.196,7.456,31.86,7.45
	c13.664-0.006,24.745,11.066,24.75,24.73c0,0.006,0,0.013,0,0.02C56.588,45.849,45.529,56.908,31.88,56.93z"/>
<circle cx="31.88" cy="32.2" r="15.63"/>
</svg>
