<?xml version="1.0" encoding="utf-8"?>
<!-- Generator: Adobe Illustrator 15.0.0, SVG Export Plug-In . SVG Version: 6.00 Build 0)  -->
<!DOCTYPE svg PUBLIC "-//W3C//DTD SVG 1.1//EN" "http://www.w3.org/Graphics/SVG/1.1/DTD/svg11.dtd">
<svg version="1.1" id="Layer_1" xmlns="http://www.w3.org/2000/svg" xmlns:xlink="http://www.w3.org/1999/xlink" x="0px" y="0px"
	 width="64px" height="64px" viewBox="0 0 64 64" enable-background="new 0 0 64 64" xml:space="preserve">
<title>cog</title>
<path d="M31,44c6.075,0,11-4.925,11-11s-4.925-11-11-11s-11,4.925-11,11S24.925,44,31,44z M31,24c4.971,0,9,4.029,9,9s-4.029,9-9,9
	s-9-4.029-9-9S26.029,24,31,24z"/>
<path d="M7,38h3.61c0.513,2.114,1.346,4.138,2.47,6l-2.21,2.21c-1.137,1.165-1.137,3.024,0,4.19l2.77,2.77
	c1.165,1.137,3.024,1.137,4.19,0L20,50.91c1.857,1.135,3.882,1.969,6,2.47V57c0,1.656,1.343,3,3,3h4c1.656,0,3-1.344,3-3v-3.609
	c2.114-0.514,4.138-1.346,6-2.471l2.21,2.21c1.165,1.138,3.024,1.138,4.19,0l2.77-2.78c1.137-1.165,1.137-3.024,0-4.189l-2.27-2.21
	c1.136-1.856,1.97-3.882,2.47-6H55c1.656,0,3-1.343,3-3V31c0-1.657-1.344-3-3-3h-3.609c-0.514-2.116-1.351-4.139-2.48-6l2.21-2.22
	c1.137-1.166,1.137-3.025,0-4.19l-2.78-2.78c-1.165-1.137-3.024-1.137-4.189,0l-2.211,2.21c-1.844-1.107-3.847-1.924-5.939-2.42V9
	c0-1.657-1.344-3-3-3h-4c-1.657,0-3,1.343-3,3v3.6c-2.117,0.509-4.141,1.346-6,2.48l-2.21-2.21c-1.166-1.137-3.025-1.137-4.19,0
	l-2.78,2.78c-0.533,0.564-0.827,1.313-0.82,2.09c-0.003,0.785,0.311,1.539,0.87,2.09L13.08,22c-1.133,1.859-1.969,3.884-2.48,6H7
	c-1.657,0-3,1.343-3,3v4C4,36.656,5.343,38,7,38z M6,31c0-0.552,0.448-1,1-1h4.41c0.482,0.01,0.903-0.327,1-0.8
	c0.483-2.408,1.435-4.698,2.8-6.74c0.262-0.397,0.208-0.924-0.13-1.26l-2.78-2.78c-0.355-0.383-0.355-0.977,0-1.36l2.78-2.78
	c0.383-0.356,0.977-0.356,1.36,0l2.78,2.78c0.338,0.334,0.865,0.385,1.26,0.12c2.042-1.368,4.331-2.323,6.74-2.81
	c0.473-0.097,0.81-0.518,0.8-1V9c0-0.552,0.448-1,1-1h4c0.553,0,1,0.448,1,1v4.4c-0.01,0.483,0.327,0.904,0.801,1
	c2.408,0.486,4.699,1.441,6.74,2.81c0.395,0.265,0.922,0.214,1.26-0.12l2.779-2.78c0.384-0.356,0.977-0.356,1.36,0l2.78,2.78
	c0.355,0.384,0.355,0.977,0,1.36l-2.78,2.78c-0.338,0.335-0.392,0.863-0.13,1.26c1.356,2.046,2.307,4.334,2.8,6.74
	c0.097,0.473,0.518,0.81,1,0.8H55c0.553,0,1,0.447,1,1v4c0,0.552-0.447,1-1,1h-4.41c-0.482-0.01-0.903,0.327-1,0.8
	c-0.479,2.409-1.432,4.699-2.8,6.74c-0.263,0.396-0.208,0.924,0.13,1.26l2.78,2.779c0.183,0.176,0.284,0.418,0.28,0.67
	c-0.004,0.255-0.104,0.498-0.28,0.681L47,51.72c-0.384,0.356-0.977,0.356-1.359,0l-2.781-2.78c-0.338-0.334-0.864-0.385-1.26-0.119
	c-2.045,1.359-4.333,2.311-6.74,2.8c-0.473,0.097-0.809,0.517-0.799,1V57c0,0.553-0.448,1-1,1H29c-0.552,0-1-0.447-1-1v-4.41
	c0.01-0.482-0.327-0.903-0.8-1c-2.409-0.481-4.699-1.434-6.74-2.8c-0.397-0.271-0.93-0.22-1.27,0.12l-2.78,2.779
	c-0.384,0.356-0.977,0.356-1.36,0l-2.77-2.77c-0.355-0.383-0.355-0.977,0-1.359l2.78-2.78c0.334-0.339,0.385-0.865,0.12-1.261
	c-1.356-2.046-2.307-4.334-2.8-6.739c-0.096-0.474-0.517-0.81-1-0.8H7c-0.552,0-1-0.448-1-1V31z"/>
</svg>
