<?xml version="1.0" encoding="utf-8"?>
<!-- Generator: Adobe Illustrator 15.0.0, SVG Export Plug-In . SVG Version: 6.00 Build 0)  -->
<!DOCTYPE svg PUBLIC "-//W3C//DTD SVG 1.1//EN" "http://www.w3.org/Graphics/SVG/1.1/DTD/svg11.dtd">
<svg version="1.1" id="图层_1" xmlns="http://www.w3.org/2000/svg" xmlns:xlink="http://www.w3.org/1999/xlink" x="0px" y="0px"
	 width="24px" height="24px" viewBox="0 0 24 24" enable-background="new 0 0 24 24" xml:space="preserve">
<g>
	<path d="M16.659,8.134l-7.146,6.671l-2.159-2.158c-0.195-0.195-0.512-0.195-0.707,0c-0.195,0.194-0.195,0.512,0,0.707l2.5,2.5
		C9.244,15.951,9.372,16,9.5,16c0.123,0,0.245-0.045,0.341-0.134l7.5-7c0.202-0.188,0.212-0.505,0.024-0.707
		C17.176,7.957,16.861,7.946,16.659,8.134z M12,0C5.383,0,0,5.383,0,12s5.383,12,12,12s12-5.383,12-12S18.617,0,12,0z M12,23
		C5.935,23,1,18.064,1,12C1,5.935,5.935,1,12,1c6.064,0,11,4.935,11,11C23,18.064,18.064,23,12,23z"/>
</g>
</svg>
